<?xml version="1.0" encoding="UTF-8"?>
<svg id="Layer_1" xmlns="http://www.w3.org/2000/svg" version="1.1" viewBox="0 0 177.8 182.48">
  <!-- Generator: Adobe Illustrator 29.8.3, SVG Export Plug-In . SVG Version: 2.1.1 Build 3)  -->
  <path d="M108.19,17.2c-.24,0-.43.19-.43.43v147.22c0,.24.19.43.43.43s.43-.19.43-.43V17.63c0-.24-.19-.43-.43-.43Z"/>
  <path d="M101.76,17.2c-.24,0-.43.19-.43.43v147.22c0,.24.19.43.43.43s.43-.19.43-.43V17.63c0-.24-.19-.43-.43-.43Z"/>
  <path d="M95.33,17.2c-.24,0-.43.19-.43.43v147.22c0,.24.19.43.43.43s.43-.19.43-.43V17.63c0-.24-.19-.43-.43-.43Z"/>
  <path d="M88.9,17.2c-.24,0-.43.19-.43.43v147.22c0,.24.19.43.43.43s.43-.19.43-.43V17.63c0-.24-.19-.43-.43-.43Z"/>
  <path d="M82.47,17.2c-.24,0-.43.19-.43.43v147.22c0,.24.19.43.43.43s.43-.19.43-.43V17.63c0-.24-.19-.43-.43-.43Z"/>
  <path d="M76.05,17.2c-.24,0-.43.19-.43.43v147.22c0,.24.19.43.43.43s.43-.19.43-.43V17.63c0-.24-.19-.43-.43-.43Z"/>
  <path d="M69.62,17.2c-.24,0-.43.19-.43.43v147.22c0,.24.19.43.43.43s.43-.19.43-.43V17.63c0-.24-.19-.43-.43-.43Z"/>
</svg>