<?xml version="1.0" encoding="UTF-8"?><svg id="Capa_1" xmlns="http://www.w3.org/2000/svg" viewBox="0 0 300 300"><path d="M230.74,23.21l-2.61-5.98-5.47,3.54c-.39.25-9.33,6.07-20.45,15.35-7.95-11.44-14.08-18.55-14.14-18.62l-4.25-4.94-4.18,5c-.25.3-6.1,7.35-13.54,18.27-2.85-8.32-5.2-13.79-5.54-14.59l-1.89-4.34-3.97,2.57c-.64.41-10.53,6.88-22.56,17.06-8.53-12.44-15.36-20.43-15.68-20.79l-3.09-3.59-3.04,3.63c-.32.38-7.27,8.74-15.8,21.54-11.62-9.07-21.04-14.72-22.07-15.33l-4.07-2.41-1.71,4.41c-.57,1.46-13.89,36.16-13.89,68.5s18.89,64.73,43,70.88c3.36.86,6.67,1.28,9.88,1.28.98,0,1.96-.04,2.92-.12.58.18,1.17.33,1.75.48v122.84h11.79v-121.82c9.94-.81,19.66-5.54,28.18-12.35l.27.22c5.09,4.05,10.45,6.82,15.95,8.22,4.25,1.08,8.48,1.48,12.52,1.18,1.37.42,2.77.73,4.18.98v123.57h11.79v-123.42c17.74-2.61,33.28-17,42.39-30.55,24.9-37-5.38-107.67-6.68-110.66Z"/></svg>